<svg xmlns="http://www.w3.org/2000/svg" viewBox="0 0 200 200"><path d="M25.3 74.7c0 41.3 33.4 74.7 74.7 74.7s74.7-33.4 74.7-74.7C174.7 33.4 141.3 0 100 0S25.3 33.4 25.3 74.7z" fill="#26bd9e"/><path d="M89.6 122.2c-.2 0-.4-.1-.6-.2-.9-.3-1.2-.9-.9-1.7l8.1-36.2-27-1.4c-.6 0-1.1-.3-1.4-.9-.4-.6-.3-1.1.3-1.8l44.4-52.2c.6-.8 1.2-.9 1.8-.3.7.2 1 .7.9 1.6l-8.1 36.3 23.8 1.2c.6 0 1.1.3 1.4.9.1.6.1 1.2-.1 1.8L91 121.7c-.4.4-.9.6-1.4.5z" fill="#fff"/><path d="M100 200c27.5 0 54.3-8.9 76.2-25.5l-18.6-25.7c-34 25.9-81.2 25.6-114.8-.9l-18.9 26.6C45.7 191.1 72.5 200 100 200z" fill="#323333"/></svg>